<svg xmlns="http://www.w3.org/2000/svg" width="32" height="32" preserveAspectRatio="xMidYMid meet" version="1.0" viewBox="0 0 24 24"><g fill="#000" stroke="none"><path d="M85 200 c-11 -13 -15 -27 -11 -44 11 -46 81 -46 92 0 7 28 -19 64 -46 64 -9 0 -25 -9 -35 -20z" transform="translate(0.000000,24.000000) scale(0.100000,-0.100000)"/><path d="M90 89 c-35 -14 -60 -39 -60 -61 0 -16 9 -18 91 -18 87 0 90 1 87 21 -6 42 -75 75 -118 58z" transform="translate(0.000000,24.000000) scale(0.100000,-0.100000)"/></g></svg>