<svg width="390" height="135" viewBox="0 0 390 135" fill="none" xmlns="http://www.w3.org/2000/svg">
<g filter="url(#filter0_d_37_37805)">
<rect width="390" height="105" transform="translate(0 30)" fill="white"/>
<path d="M45.02 62.8402L39.63 67.0402C38.73 67.7402 38 69.2302 38 70.3602V77.7702C38 80.0902 39.89 81.9902 42.21 81.9902H53.79C56.11 81.9902 58 80.0902 58 77.7802V70.5002C58 69.2902 57.19 67.7402 56.2 67.0502L50.02 62.7202C48.62 61.7402 46.37 61.7902 45.02 62.8402Z" stroke="#767676" stroke-width="1.5" stroke-linecap="round" stroke-linejoin="round"/>
<path d="M48 77.9902V74.9902" stroke="#767676" stroke-width="1.5" stroke-linecap="round" stroke-linejoin="round"/>
<path d="M37.368 96.636V105H36.276V101.208H32.016V105H30.924V96.636H32.016V100.308H36.276V96.636H37.368ZM42.1006 105.108C41.4846 105.108 40.9246 104.968 40.4206 104.688C39.9246 104.408 39.5326 104.012 39.2446 103.5C38.9646 102.98 38.8246 102.38 38.8246 101.7C38.8246 101.028 38.9686 100.436 39.2566 99.924C39.5526 99.404 39.9526 99.008 40.4566 98.736C40.9606 98.456 41.5246 98.316 42.1486 98.316C42.7726 98.316 43.3366 98.456 43.8406 98.736C44.3446 99.008 44.7406 99.4 45.0286 99.912C45.3246 100.424 45.4726 101.02 45.4726 101.7C45.4726 102.38 45.3206 102.98 45.0166 103.5C44.7206 104.012 44.3166 104.408 43.8046 104.688C43.2926 104.968 42.7246 105.108 42.1006 105.108ZM42.1006 104.148C42.4926 104.148 42.8606 104.056 43.2046 103.872C43.5486 103.688 43.8246 103.412 44.0326 103.044C44.2486 102.676 44.3566 102.228 44.3566 101.7C44.3566 101.172 44.2526 100.724 44.0446 100.356C43.8366 99.988 43.5646 99.716 43.2286 99.54C42.8926 99.356 42.5286 99.264 42.1366 99.264C41.7366 99.264 41.3686 99.356 41.0326 99.54C40.7046 99.716 40.4406 99.988 40.2406 100.356C40.0406 100.724 39.9406 101.172 39.9406 101.7C39.9406 102.236 40.0366 102.688 40.2286 103.056C40.4286 103.424 40.6926 103.7 41.0206 103.884C41.3486 104.06 41.7086 104.148 42.1006 104.148ZM54.8164 98.304C55.3284 98.304 55.7844 98.412 56.1844 98.628C56.5844 98.836 56.9004 99.152 57.1324 99.576C57.3644 100 57.4804 100.516 57.4804 101.124V105H56.4004V101.28C56.4004 100.624 56.2364 100.124 55.9084 99.78C55.5884 99.428 55.1524 99.252 54.6004 99.252C54.0324 99.252 53.5804 99.436 53.2444 99.804C52.9084 100.164 52.7404 100.688 52.7404 101.376V105H51.6604V101.28C51.6604 100.624 51.4964 100.124 51.1684 99.78C50.8484 99.428 50.4124 99.252 49.8604 99.252C49.2924 99.252 48.8404 99.436 48.5044 99.804C48.1684 100.164 48.0004 100.688 48.0004 101.376V105H46.9084V98.424H48.0004V99.372C48.2164 99.028 48.5044 98.764 48.8644 98.58C49.2324 98.396 49.6364 98.304 50.0764 98.304C50.6284 98.304 51.1164 98.428 51.5404 98.676C51.9644 98.924 52.2804 99.288 52.4884 99.768C52.6724 99.304 52.9764 98.944 53.4004 98.688C53.8244 98.432 54.2964 98.304 54.8164 98.304ZM65.2717 101.46C65.2717 101.668 65.2597 101.888 65.2357 102.12H59.9797C60.0197 102.768 60.2397 103.276 60.6397 103.644C61.0477 104.004 61.5397 104.184 62.1157 104.184C62.5877 104.184 62.9797 104.076 63.2917 103.86C63.6117 103.636 63.8357 103.34 63.9637 102.972H65.1397C64.9637 103.604 64.6117 104.12 64.0837 104.52C63.5557 104.912 62.8997 105.108 62.1157 105.108C61.4917 105.108 60.9317 104.968 60.4357 104.688C59.9477 104.408 59.5637 104.012 59.2837 103.5C59.0037 102.98 58.8637 102.38 58.8637 101.7C58.8637 101.02 58.9997 100.424 59.2717 99.912C59.5437 99.4 59.9237 99.008 60.4117 98.736C60.9077 98.456 61.4757 98.316 62.1157 98.316C62.7397 98.316 63.2917 98.452 63.7717 98.724C64.2517 98.996 64.6197 99.372 64.8757 99.852C65.1397 100.324 65.2717 100.86 65.2717 101.46ZM64.1437 101.232C64.1437 100.816 64.0517 100.46 63.8677 100.164C63.6837 99.86 63.4317 99.632 63.1117 99.48C62.7997 99.32 62.4517 99.24 62.0677 99.24C61.5157 99.24 61.0437 99.416 60.6517 99.768C60.2677 100.12 60.0477 100.608 59.9917 101.232H64.1437Z" fill="#767676"/>
<path d="M131.99 71.9996C132.31 70.9796 132.5 69.8796 132.5 68.6896C132.5 65.5996 130.01 63.0996 126.94 63.0996C125.12 63.0996 123.51 63.9797 122.5 65.3397C121.49 63.9797 119.87 63.0996 118.06 63.0996C114.99 63.0996 112.5 65.5996 112.5 68.6896C112.5 75.6896 118.98 79.8196 121.88 80.8196C122.05 80.8796 122.27 80.9096 122.5 80.9096" stroke="#767676" stroke-width="1.5" stroke-linecap="round" stroke-linejoin="round"/>
<path d="M128.24 80.9996C130.007 80.9996 131.44 79.5669 131.44 77.7996C131.44 76.0323 130.007 74.5996 128.24 74.5996C126.473 74.5996 125.04 76.0323 125.04 77.7996C125.04 79.5669 126.473 80.9996 128.24 80.9996Z" stroke="#767676" stroke-width="1.5" stroke-linecap="round" stroke-linejoin="round"/>
<path d="M132.04 81.5996L131.04 80.5996" stroke="#767676" stroke-width="1.5" stroke-linecap="round" stroke-linejoin="round"/>
<path d="M104.576 105.084C104.024 105.084 103.528 104.988 103.088 104.796C102.656 104.596 102.316 104.324 102.068 103.98C101.82 103.628 101.692 103.224 101.684 102.768H102.848C102.888 103.16 103.048 103.492 103.328 103.764C103.616 104.028 104.032 104.16 104.576 104.16C105.096 104.16 105.504 104.032 105.8 103.776C106.104 103.512 106.256 103.176 106.256 102.768C106.256 102.448 106.168 102.188 105.992 101.988C105.816 101.788 105.596 101.636 105.332 101.532C105.068 101.428 104.712 101.316 104.264 101.196C103.712 101.052 103.268 100.908 102.932 100.764C102.604 100.62 102.32 100.396 102.08 100.092C101.848 99.78 101.732 99.364 101.732 98.844C101.732 98.388 101.848 97.984 102.08 97.632C102.312 97.28 102.636 97.008 103.052 96.816C103.476 96.624 103.96 96.528 104.504 96.528C105.288 96.528 105.928 96.724 106.424 97.116C106.928 97.508 107.212 98.028 107.276 98.676H106.076C106.036 98.356 105.868 98.076 105.572 97.836C105.276 97.588 104.884 97.464 104.396 97.464C103.94 97.464 103.568 97.584 103.28 97.824C102.992 98.056 102.848 98.384 102.848 98.808C102.848 99.112 102.932 99.36 103.1 99.552C103.276 99.744 103.488 99.892 103.736 99.996C103.992 100.092 104.348 100.204 104.804 100.332C105.356 100.484 105.8 100.636 106.136 100.788C106.472 100.932 106.76 101.16 107 101.472C107.24 101.776 107.36 102.192 107.36 102.72C107.36 103.128 107.252 103.512 107.036 103.872C106.82 104.232 106.5 104.524 106.076 104.748C105.652 104.972 105.152 105.084 104.576 105.084ZM114.967 101.46C114.967 101.668 114.955 101.888 114.931 102.12H109.675C109.715 102.768 109.935 103.276 110.335 103.644C110.743 104.004 111.235 104.184 111.811 104.184C112.283 104.184 112.675 104.076 112.987 103.86C113.307 103.636 113.531 103.34 113.659 102.972H114.835C114.659 103.604 114.307 104.12 113.779 104.52C113.251 104.912 112.595 105.108 111.811 105.108C111.187 105.108 110.627 104.968 110.131 104.688C109.643 104.408 109.259 104.012 108.979 103.5C108.699 102.98 108.559 102.38 108.559 101.7C108.559 101.02 108.695 100.424 108.967 99.912C109.239 99.4 109.619 99.008 110.107 98.736C110.603 98.456 111.171 98.316 111.811 98.316C112.435 98.316 112.987 98.452 113.467 98.724C113.947 98.996 114.315 99.372 114.571 99.852C114.835 100.324 114.967 100.86 114.967 101.46ZM113.839 101.232C113.839 100.816 113.747 100.46 113.563 100.164C113.379 99.86 113.127 99.632 112.807 99.48C112.495 99.32 112.147 99.24 111.763 99.24C111.211 99.24 110.739 99.416 110.347 99.768C109.963 100.12 109.743 100.608 109.687 101.232H113.839ZM116 101.688C116 101.016 116.136 100.428 116.408 99.924C116.68 99.412 117.052 99.016 117.524 98.736C118.004 98.456 118.536 98.316 119.12 98.316C119.696 98.316 120.196 98.44 120.62 98.688C121.044 98.936 121.36 99.248 121.568 99.624V98.424H122.672V105H121.568V103.776C121.352 104.16 121.028 104.48 120.596 104.736C120.172 104.984 119.676 105.108 119.108 105.108C118.524 105.108 117.996 104.964 117.524 104.676C117.052 104.388 116.68 103.984 116.408 103.464C116.136 102.944 116 102.352 116 101.688ZM121.568 101.7C121.568 101.204 121.468 100.772 121.268 100.404C121.068 100.036 120.796 99.756 120.452 99.564C120.116 99.364 119.744 99.264 119.336 99.264C118.928 99.264 118.556 99.36 118.22 99.552C117.884 99.744 117.616 100.024 117.416 100.392C117.216 100.76 117.116 101.192 117.116 101.688C117.116 102.192 117.216 102.632 117.416 103.008C117.616 103.376 117.884 103.66 118.22 103.86C118.556 104.052 118.928 104.148 119.336 104.148C119.744 104.148 120.116 104.052 120.452 103.86C120.796 103.66 121.068 103.376 121.268 103.008C121.468 102.632 121.568 102.196 121.568 101.7ZM125.61 99.492C125.802 99.116 126.074 98.824 126.426 98.616C126.786 98.408 127.222 98.304 127.734 98.304V99.432H127.446C126.222 99.432 125.61 100.096 125.61 101.424V105H124.518V98.424H125.61V99.492ZM128.586 101.7C128.586 101.02 128.722 100.428 128.994 99.924C129.266 99.412 129.642 99.016 130.122 98.736C130.61 98.456 131.166 98.316 131.79 98.316C132.598 98.316 133.262 98.512 133.782 98.904C134.31 99.296 134.658 99.84 134.826 100.536H133.65C133.538 100.136 133.318 99.82 132.99 99.588C132.67 99.356 132.27 99.24 131.79 99.24C131.166 99.24 130.662 99.456 130.278 99.888C129.894 100.312 129.702 100.916 129.702 101.7C129.702 102.492 129.894 103.104 130.278 103.536C130.662 103.968 131.166 104.184 131.79 104.184C132.27 104.184 132.67 104.072 132.99 103.848C133.31 103.624 133.53 103.304 133.65 102.888H134.826C134.65 103.56 134.298 104.1 133.77 104.508C133.242 104.908 132.582 105.108 131.79 105.108C131.166 105.108 130.61 104.968 130.122 104.688C129.642 104.408 129.266 104.012 128.994 103.5C128.722 102.988 128.586 102.388 128.586 101.7ZM139.547 98.304C140.043 98.304 140.491 98.412 140.891 98.628C141.291 98.836 141.603 99.152 141.827 99.576C142.059 100 142.175 100.516 142.175 101.124V105H141.095V101.28C141.095 100.624 140.931 100.124 140.603 99.78C140.275 99.428 139.827 99.252 139.259 99.252C138.683 99.252 138.223 99.432 137.879 99.792C137.543 100.152 137.375 100.676 137.375 101.364V105H136.283V96.12H137.375V99.36C137.591 99.024 137.887 98.764 138.263 98.58C138.647 98.396 139.075 98.304 139.547 98.304Z" fill="#767676"/>
<path d="M205 82C210.5 82 215 77.5 215 72C215 66.5 210.5 62 205 62C199.5 62 195 66.5 195 72C195 77.5 199.5 82 205 82Z" stroke="#767676" stroke-width="1.5" stroke-miterlimit="10"/>
<path d="M206.5 68.0002C203.47 68.0002 201 70.4802 201 73.5002C201 76.0002 201 76.0002 203.5 76.0002C206.52 76.0002 209 73.5202 209 70.5002C209 67.9245 209 68.0002 206.5 68.0002Z" stroke="#767676" stroke-width="1.5" stroke-miterlimit="10" stroke-linecap="round" stroke-linejoin="round"/>
<path d="M182.528 96.636C183.44 96.636 184.228 96.808 184.892 97.152C185.564 97.488 186.076 97.972 186.428 98.604C186.788 99.236 186.968 99.98 186.968 100.836C186.968 101.692 186.788 102.436 186.428 103.068C186.076 103.692 185.564 104.172 184.892 104.508C184.228 104.836 183.44 105 182.528 105H179.924V96.636H182.528ZM182.528 104.1C183.608 104.1 184.432 103.816 185 103.248C185.568 102.672 185.852 101.868 185.852 100.836C185.852 99.796 185.564 98.984 184.988 98.4C184.42 97.816 183.6 97.524 182.528 97.524H181.016V104.1H182.528ZM188.972 97.356C188.764 97.356 188.588 97.284 188.444 97.14C188.3 96.996 188.228 96.82 188.228 96.612C188.228 96.404 188.3 96.228 188.444 96.084C188.588 95.94 188.764 95.868 188.972 95.868C189.172 95.868 189.34 95.94 189.476 96.084C189.62 96.228 189.692 96.404 189.692 96.612C189.692 96.82 189.62 96.996 189.476 97.14C189.34 97.284 189.172 97.356 188.972 97.356ZM189.5 98.424V105H188.408V98.424H189.5ZM193.69 105.108C193.186 105.108 192.734 105.024 192.334 104.856C191.934 104.68 191.618 104.44 191.386 104.136C191.154 103.824 191.026 103.468 191.002 103.068H192.13C192.162 103.396 192.314 103.664 192.586 103.872C192.866 104.08 193.23 104.184 193.678 104.184C194.094 104.184 194.422 104.092 194.662 103.908C194.902 103.724 195.022 103.492 195.022 103.212C195.022 102.924 194.894 102.712 194.638 102.576C194.382 102.432 193.986 102.292 193.45 102.156C192.962 102.028 192.562 101.9 192.25 101.772C191.946 101.636 191.682 101.44 191.458 101.184C191.242 100.92 191.134 100.576 191.134 100.152C191.134 99.816 191.234 99.508 191.434 99.228C191.634 98.948 191.918 98.728 192.286 98.568C192.654 98.4 193.074 98.316 193.546 98.316C194.274 98.316 194.862 98.5 195.31 98.868C195.758 99.236 195.998 99.74 196.03 100.38H194.938C194.914 100.036 194.774 99.76 194.518 99.552C194.27 99.344 193.934 99.24 193.51 99.24C193.118 99.24 192.806 99.324 192.574 99.492C192.342 99.66 192.226 99.88 192.226 100.152C192.226 100.368 192.294 100.548 192.43 100.692C192.574 100.828 192.75 100.94 192.958 101.028C193.174 101.108 193.47 101.2 193.846 101.304C194.318 101.432 194.702 101.56 194.998 101.688C195.294 101.808 195.546 101.992 195.754 102.24C195.97 102.488 196.082 102.812 196.09 103.212C196.09 103.572 195.99 103.896 195.79 104.184C195.59 104.472 195.306 104.7 194.938 104.868C194.578 105.028 194.162 105.108 193.69 105.108ZM197.223 101.7C197.223 101.02 197.359 100.428 197.631 99.924C197.903 99.412 198.279 99.016 198.759 98.736C199.247 98.456 199.803 98.316 200.427 98.316C201.235 98.316 201.899 98.512 202.419 98.904C202.947 99.296 203.295 99.84 203.463 100.536H202.287C202.175 100.136 201.955 99.82 201.627 99.588C201.307 99.356 200.907 99.24 200.427 99.24C199.803 99.24 199.299 99.456 198.915 99.888C198.531 100.312 198.339 100.916 198.339 101.7C198.339 102.492 198.531 103.104 198.915 103.536C199.299 103.968 199.803 104.184 200.427 104.184C200.907 104.184 201.307 104.072 201.627 103.848C201.947 103.624 202.167 103.304 202.287 102.888H203.463C203.287 103.56 202.935 104.1 202.407 104.508C201.879 104.908 201.219 105.108 200.427 105.108C199.803 105.108 199.247 104.968 198.759 104.688C198.279 104.408 197.903 104.012 197.631 103.5C197.359 102.988 197.223 102.388 197.223 101.7ZM207.788 105.108C207.172 105.108 206.612 104.968 206.108 104.688C205.612 104.408 205.22 104.012 204.932 103.5C204.652 102.98 204.512 102.38 204.512 101.7C204.512 101.028 204.656 100.436 204.944 99.924C205.24 99.404 205.64 99.008 206.144 98.736C206.648 98.456 207.212 98.316 207.836 98.316C208.46 98.316 209.024 98.456 209.528 98.736C210.032 99.008 210.428 99.4 210.716 99.912C211.012 100.424 211.16 101.02 211.16 101.7C211.16 102.38 211.008 102.98 210.704 103.5C210.408 104.012 210.004 104.408 209.492 104.688C208.98 104.968 208.412 105.108 207.788 105.108ZM207.788 104.148C208.18 104.148 208.548 104.056 208.892 103.872C209.236 103.688 209.512 103.412 209.72 103.044C209.936 102.676 210.044 102.228 210.044 101.7C210.044 101.172 209.94 100.724 209.732 100.356C209.524 99.988 209.252 99.716 208.916 99.54C208.58 99.356 208.216 99.264 207.824 99.264C207.424 99.264 207.056 99.356 206.72 99.54C206.392 99.716 206.128 99.988 205.928 100.356C205.728 100.724 205.628 101.172 205.628 101.7C205.628 102.236 205.724 102.688 205.916 103.056C206.116 103.424 206.38 103.7 206.708 103.884C207.036 104.06 207.396 104.148 207.788 104.148ZM215.044 103.992L217.084 98.424H218.248L215.668 105H214.396L211.816 98.424H212.992L215.044 103.992ZM225.322 101.46C225.322 101.668 225.31 101.888 225.286 102.12H220.03C220.07 102.768 220.29 103.276 220.69 103.644C221.098 104.004 221.59 104.184 222.166 104.184C222.638 104.184 223.03 104.076 223.342 103.86C223.662 103.636 223.886 103.34 224.014 102.972H225.19C225.014 103.604 224.662 104.12 224.134 104.52C223.606 104.912 222.95 105.108 222.166 105.108C221.542 105.108 220.982 104.968 220.486 104.688C219.998 104.408 219.614 104.012 219.334 103.5C219.054 102.98 218.914 102.38 218.914 101.7C218.914 101.02 219.05 100.424 219.322 99.912C219.594 99.4 219.974 99.008 220.462 98.736C220.958 98.456 221.526 98.316 222.166 98.316C222.79 98.316 223.342 98.452 223.822 98.724C224.302 98.996 224.67 99.372 224.926 99.852C225.19 100.324 225.322 100.86 225.322 101.46ZM224.194 101.232C224.194 100.816 224.102 100.46 223.918 100.164C223.734 99.86 223.482 99.632 223.162 99.48C222.85 99.32 222.502 99.24 222.118 99.24C221.566 99.24 221.094 99.416 220.702 99.768C220.318 100.12 220.098 100.608 220.042 101.232H224.194ZM227.856 99.492C228.048 99.116 228.32 98.824 228.672 98.616C229.032 98.408 229.468 98.304 229.98 98.304V99.432H229.692C228.468 99.432 227.856 100.096 227.856 101.424V105H226.764V98.424H227.856V99.492Z" fill="#767676"/>
<path d="M291 68V73C291 77 289 79 285 79H284.5C284.19 79 283.89 79.15 283.7 79.4L282.2 81.4C281.54 82.28 280.46 82.28 279.8 81.4L278.3 79.4C278.14 79.18 277.77 79 277.5 79H277C273 79 271 78 271 73V68C271 64 273 62 277 62H281" stroke="#767676" stroke-width="1.5" stroke-miterlimit="10" stroke-linecap="round" stroke-linejoin="round"/>
<path d="M284.2 64.6196C283.87 63.6296 284.26 62.4096 285.34 62.0696C285.9 61.8996 286.6 62.0396 287 62.5696C287.38 62.0196 288.1 61.8996 288.66 62.0696C289.74 62.3996 290.13 63.6296 289.8 64.6196C289.29 66.1896 287.5 66.9996 287 66.9996C286.5 66.9996 284.73 66.1996 284.2 64.6196Z" stroke="#767676" stroke-width="1.5" stroke-linecap="round" stroke-linejoin="round"/>
<path d="M284.996 71H285.005" stroke="#767676" stroke-width="2" stroke-linecap="round" stroke-linejoin="round"/>
<path d="M280.995 71H281.004" stroke="#767676" stroke-width="2" stroke-linecap="round" stroke-linejoin="round"/>
<path d="M276.995 71H277.003" stroke="#767676" stroke-width="2" stroke-linecap="round" stroke-linejoin="round"/>
<path d="M266.516 100.812C266.516 99.996 266.7 99.264 267.068 98.616C267.436 97.96 267.936 97.448 268.568 97.08C269.208 96.712 269.916 96.528 270.692 96.528C271.604 96.528 272.4 96.748 273.08 97.188C273.76 97.628 274.256 98.252 274.568 99.06H273.26C273.028 98.556 272.692 98.168 272.252 97.896C271.82 97.624 271.3 97.488 270.692 97.488C270.108 97.488 269.584 97.624 269.12 97.896C268.656 98.168 268.292 98.556 268.028 99.06C267.764 99.556 267.632 100.14 267.632 100.812C267.632 101.476 267.764 102.06 268.028 102.564C268.292 103.06 268.656 103.444 269.12 103.716C269.584 103.988 270.108 104.124 270.692 104.124C271.3 104.124 271.82 103.992 272.252 103.728C272.692 103.456 273.028 103.068 273.26 102.564H274.568C274.256 103.364 273.76 103.984 273.08 104.424C272.4 104.856 271.604 105.072 270.692 105.072C269.916 105.072 269.208 104.892 268.568 104.532C267.936 104.164 267.436 103.656 267.068 103.008C266.7 102.36 266.516 101.628 266.516 100.812ZM279.458 98.304C279.954 98.304 280.402 98.412 280.802 98.628C281.202 98.836 281.514 99.152 281.738 99.576C281.97 100 282.086 100.516 282.086 101.124V105H281.006V101.28C281.006 100.624 280.842 100.124 280.514 99.78C280.186 99.428 279.738 99.252 279.17 99.252C278.594 99.252 278.134 99.432 277.79 99.792C277.454 100.152 277.286 100.676 277.286 101.364V105H276.194V96.12H277.286V99.36C277.502 99.024 277.798 98.764 278.174 98.58C278.558 98.396 278.986 98.304 279.458 98.304ZM283.461 101.688C283.461 101.016 283.597 100.428 283.869 99.924C284.141 99.412 284.513 99.016 284.985 98.736C285.465 98.456 285.997 98.316 286.581 98.316C287.157 98.316 287.657 98.44 288.081 98.688C288.505 98.936 288.821 99.248 289.029 99.624V98.424H290.133V105H289.029V103.776C288.813 104.16 288.489 104.48 288.057 104.736C287.633 104.984 287.137 105.108 286.569 105.108C285.985 105.108 285.457 104.964 284.985 104.676C284.513 104.388 284.141 103.984 283.869 103.464C283.597 102.944 283.461 102.352 283.461 101.688ZM289.029 101.7C289.029 101.204 288.929 100.772 288.729 100.404C288.529 100.036 288.257 99.756 287.913 99.564C287.577 99.364 287.205 99.264 286.797 99.264C286.389 99.264 286.017 99.36 285.681 99.552C285.345 99.744 285.077 100.024 284.877 100.392C284.677 100.76 284.577 101.192 284.577 101.688C284.577 102.192 284.677 102.632 284.877 103.008C285.077 103.376 285.345 103.66 285.681 103.86C286.017 104.052 286.389 104.148 286.797 104.148C287.205 104.148 287.577 104.052 287.913 103.86C288.257 103.66 288.529 103.376 288.729 103.008C288.929 102.632 289.029 102.196 289.029 101.7ZM293.311 99.324V103.2C293.311 103.52 293.379 103.748 293.515 103.884C293.651 104.012 293.887 104.076 294.223 104.076H295.027V105H294.043C293.435 105 292.979 104.86 292.675 104.58C292.371 104.3 292.219 103.84 292.219 103.2V99.324H291.367V98.424H292.219V96.768H293.311V98.424H295.027V99.324H293.311Z" fill="#767676"/>
<path d="M350 72C352.761 72 355 69.7614 355 67C355 64.2386 352.761 62 350 62C347.239 62 345 64.2386 345 67C345 69.7614 347.239 72 350 72Z" fill="black"/>
<path d="M350 74.5C344.99 74.5 340.91 77.86 340.91 82C340.91 82.28 341.13 82.5 341.41 82.5H358.59C358.87 82.5 359.09 82.28 359.09 82C359.09 77.86 355.01 74.5 350 74.5Z" fill="black"/>
<path d="M337.732 99.144C337.732 99.568 337.632 99.968 337.432 100.344C337.232 100.72 336.912 101.028 336.472 101.268C336.032 101.5 335.468 101.616 334.78 101.616H333.268V105H331.9V96.66H334.78C335.42 96.66 335.96 96.772 336.4 96.996C336.848 97.212 337.18 97.508 337.396 97.884C337.62 98.26 337.732 98.68 337.732 99.144ZM334.78 100.5C335.3 100.5 335.688 100.384 335.944 100.152C336.2 99.912 336.328 99.576 336.328 99.144C336.328 98.232 335.812 97.776 334.78 97.776H333.268V100.5H334.78ZM340.405 99.348C340.605 99.012 340.869 98.752 341.197 98.568C341.533 98.376 341.929 98.28 342.385 98.28V99.696H342.037C341.501 99.696 341.093 99.832 340.813 100.104C340.541 100.376 340.405 100.848 340.405 101.52V105H339.037V98.388H340.405V99.348ZM346.51 105.108C345.886 105.108 345.322 104.968 344.818 104.688C344.314 104.4 343.918 104 343.63 103.488C343.342 102.968 343.198 102.368 343.198 101.688C343.198 101.016 343.346 100.42 343.642 99.9C343.938 99.38 344.342 98.98 344.854 98.7C345.366 98.42 345.938 98.28 346.57 98.28C347.202 98.28 347.774 98.42 348.286 98.7C348.798 98.98 349.202 99.38 349.498 99.9C349.794 100.42 349.942 101.016 349.942 101.688C349.942 102.36 349.79 102.956 349.486 103.476C349.182 103.996 348.766 104.4 348.238 104.688C347.718 104.968 347.142 105.108 346.51 105.108ZM346.51 103.92C346.862 103.92 347.19 103.836 347.494 103.668C347.806 103.5 348.058 103.248 348.25 102.912C348.442 102.576 348.538 102.168 348.538 101.688C348.538 101.208 348.446 100.804 348.262 100.476C348.078 100.14 347.834 99.888 347.53 99.72C347.226 99.552 346.898 99.468 346.546 99.468C346.194 99.468 345.866 99.552 345.562 99.72C345.266 99.888 345.03 100.14 344.854 100.476C344.678 100.804 344.59 101.208 344.59 101.688C344.59 102.4 344.77 102.952 345.13 103.344C345.498 103.728 345.958 103.92 346.51 103.92ZM354.067 99.504H352.843V105H351.463V99.504H350.683V98.388H351.463V97.92C351.463 97.16 351.663 96.608 352.063 96.264C352.471 95.912 353.107 95.736 353.971 95.736V96.876C353.555 96.876 353.263 96.956 353.095 97.116C352.927 97.268 352.843 97.536 352.843 97.92V98.388H354.067V99.504ZM355.975 97.512C355.727 97.512 355.519 97.428 355.351 97.26C355.183 97.092 355.099 96.884 355.099 96.636C355.099 96.388 355.183 96.18 355.351 96.012C355.519 95.844 355.727 95.76 355.975 95.76C356.215 95.76 356.419 95.844 356.587 96.012C356.755 96.18 356.839 96.388 356.839 96.636C356.839 96.884 356.755 97.092 356.587 97.26C356.419 97.428 356.215 97.512 355.975 97.512ZM356.647 98.388V105H355.279V98.388H356.647ZM359.811 96.12V105H358.443V96.12H359.811ZM367.667 101.532C367.667 101.78 367.651 102.004 367.619 102.204H362.567C362.607 102.732 362.803 103.156 363.155 103.476C363.507 103.796 363.939 103.956 364.451 103.956C365.187 103.956 365.707 103.648 366.011 103.032H367.487C367.287 103.64 366.923 104.14 366.395 104.532C365.875 104.916 365.227 105.108 364.451 105.108C363.819 105.108 363.251 104.968 362.747 104.688C362.251 104.4 361.859 104 361.571 103.488C361.291 102.968 361.151 102.368 361.151 101.688C361.151 101.008 361.287 100.412 361.559 99.9C361.839 99.38 362.227 98.98 362.723 98.7C363.227 98.42 363.803 98.28 364.451 98.28C365.075 98.28 365.631 98.416 366.119 98.688C366.607 98.96 366.987 99.344 367.259 99.84C367.531 100.328 367.667 100.892 367.667 101.532ZM366.239 101.1C366.231 100.596 366.051 100.192 365.699 99.888C365.347 99.584 364.911 99.432 364.391 99.432C363.919 99.432 363.515 99.584 363.179 99.888C362.843 100.184 362.643 100.588 362.579 101.1H366.239Z" fill="black"/>
</g>
<defs>
<filter id="filter0_d_37_37805" x="-32" y="0" width="450" height="165" filterUnits="userSpaceOnUse" color-interpolation-filters="sRGB">
<feFlood flood-opacity="0" result="BackgroundImageFix"/>
<feColorMatrix in="SourceAlpha" type="matrix" values="0 0 0 0 0 0 0 0 0 0 0 0 0 0 0 0 0 0 127 0" result="hardAlpha"/>
<feOffset dx="-2"/>
<feGaussianBlur stdDeviation="15"/>
<feComposite in2="hardAlpha" operator="out"/>
<feColorMatrix type="matrix" values="0 0 0 0 0 0 0 0 0 0 0 0 0 0 0 0 0 0 0.1 0"/>
<feBlend mode="normal" in2="BackgroundImageFix" result="effect1_dropShadow_37_37805"/>
<feBlend mode="normal" in="SourceGraphic" in2="effect1_dropShadow_37_37805" result="shape"/>
</filter>
</defs>
</svg>
